<svg width="800" height="400" viewBox="0 0 800 400" xmlns="http://www.w3.org/2000/svg"><mask id="satori_om-id"><rect x="0" y="0" width="800" height="400" fill="#fff"/></mask><rect x="0" y="0" width="800" height="400" fill="#f7f7f7"/><mask id="satori_om-id-0"><rect x="42" y="42" width="125" height="24" fill="#fff"/></mask><mask id="satori_om-id-0-0"><rect x="50" y="42" width="117" height="24" fill="#fff"/></mask><path fill="#ff4500" d="M56.0 55.9L53.9 58.2L54.0 54.6L54.4 54.6L57.9 50.5L61.4 50.5L56.7 55.9L56.0 55.9ZM54.2 61.4L51.2 61.4L51.2 46.8L54.2 46.8L54.2 61.4ZM61.6 61.4L58.0 61.4L54.8 56.6L56.8 54.5L61.6 61.4ZM65.6 61.6L65.6 61.6Q64.6 61.6 63.8 61.2Q63.0 60.8 62.5 60.1Q62.0 59.4 62.0 58.3L62.0 58.3Q62.0 57.4 62.3 56.8Q62.7 56.2 63.3 55.8Q63.8 55.4 64.6 55.2Q65.3 55.0 66.1 55.0L66.1 55.0Q67.1 54.9 67.6 54.8Q68.2 54.7 68.5 54.5Q68.7 54.3 68.7 54.0L68.7 54.0L68.7 53.9Q68.7 53.3 68.3 52.9Q67.9 52.5 67.1 52.5L67.1 52.5Q66.3 52.5 65.8 52.9Q65.3 53.3 65.2 53.8L65.2 53.8L62.4 53.6Q62.6 52.6 63.2 51.8Q63.9 51.1 64.8 50.7Q65.8 50.3 67.1 50.3L67.1 50.3Q68.1 50.3 68.9 50.5Q69.7 50.8 70.4 51.2Q71.0 51.6 71.4 52.3Q71.8 53.0 71.8 54.0L71.8 54.0L71.8 61.4L68.9 61.4L68.9 59.9L68.8 59.9Q68.6 60.4 68.1 60.8Q67.7 61.1 67.1 61.4Q66.4 61.6 65.6 61.6ZM66.5 59.5L66.5 59.5Q67.2 59.5 67.7 59.2Q68.2 59.0 68.5 58.5Q68.8 58.1 68.8 57.5L68.8 57.5L68.8 56.3Q68.6 56.4 68.4 56.5Q68.1 56.6 67.8 56.6Q67.5 56.7 67.2 56.7Q66.9 56.8 66.7 56.8L66.7 56.8Q66.1 56.9 65.7 57.1Q65.3 57.2 65.1 57.5Q64.9 57.8 64.9 58.2L64.9 58.2Q64.9 58.8 65.4 59.2Q65.8 59.5 66.5 59.5ZM76.8 61.4L73.9 61.4L73.9 46.8L76.9 46.8L76.9 52.3L77.0 52.3Q77.2 51.9 77.6 51.4Q77.9 50.9 78.6 50.6Q79.2 50.3 80.1 50.3L80.1 50.3Q81.3 50.3 82.3 50.9Q83.3 51.6 83.9 52.8Q84.5 54.1 84.5 55.9L84.5 55.9Q84.5 57.8 83.9 59.0Q83.3 60.3 82.3 60.9Q81.3 61.6 80.1 61.6L80.1 61.6Q79.2 61.6 78.6 61.3Q78.0 61.0 77.6 60.5Q77.2 60.1 77.0 59.6L77.0 59.6L76.8 59.6L76.8 61.4ZM76.8 55.9L76.8 55.9Q76.8 56.9 77.1 57.6Q77.4 58.3 77.9 58.7Q78.4 59.1 79.1 59.1L79.1 59.1Q79.9 59.1 80.4 58.7Q80.9 58.3 81.1 57.6Q81.4 56.9 81.4 55.9L81.4 55.9Q81.4 55.0 81.1 54.3Q80.9 53.5 80.4 53.1Q79.9 52.7 79.1 52.7L79.1 52.7Q78.4 52.7 77.9 53.1Q77.4 53.5 77.1 54.2Q76.8 54.9 76.8 55.9ZM86.2 46.8L89.2 46.8L89.2 61.4L86.2 61.4L86.2 46.8ZM94.4 61.6L94.4 61.6Q93.4 61.6 92.6 61.2Q91.7 60.8 91.3 60.1Q90.8 59.4 90.8 58.3L90.8 58.3Q90.8 57.4 91.1 56.8Q91.5 56.2 92.0 55.8Q92.6 55.4 93.4 55.2Q94.1 55.0 94.9 55.0L94.9 55.0Q95.9 54.9 96.4 54.8Q97.0 54.7 97.3 54.5Q97.5 54.3 97.5 54.0L97.5 54.0L97.5 53.9Q97.5 53.3 97.1 52.9Q96.7 52.5 95.9 52.5L95.9 52.5Q95.1 52.5 94.6 52.9Q94.1 53.3 94.0 53.8L94.0 53.8L91.2 53.6Q91.4 52.6 92.0 51.8Q92.6 51.1 93.6 50.7Q94.6 50.3 95.9 50.3L95.9 50.3Q96.8 50.3 97.7 50.5Q98.5 50.8 99.2 51.2Q99.8 51.6 100.2 52.3Q100.6 53.0 100.6 54.0L100.6 54.0L100.6 61.4L97.7 61.4L97.7 59.9L97.6 59.9Q97.3 60.4 96.9 60.8Q96.5 61.1 95.9 61.4Q95.2 61.6 94.4 61.6ZM95.3 59.5L95.3 59.5Q96.0 59.5 96.5 59.2Q97.0 59.0 97.3 58.5Q97.6 58.1 97.6 57.5L97.6 57.5L97.6 56.3Q97.4 56.4 97.2 56.5Q96.9 56.6 96.6 56.6Q96.3 56.7 96.0 56.7Q95.7 56.8 95.5 56.8L95.5 56.8Q94.9 56.9 94.5 57.1Q94.1 57.2 93.9 57.5Q93.7 57.8 93.7 58.2L93.7 58.2Q93.7 58.8 94.1 59.2Q94.6 59.5 95.3 59.5ZM105.6 61.4L102.6 61.4L102.6 50.5L105.5 50.5L105.5 52.4L105.6 52.4Q105.9 51.4 106.7 50.9Q107.5 50.3 108.6 50.3L108.6 50.3Q109.8 50.3 110.6 50.9Q111.3 51.4 111.6 52.4L111.6 52.4L111.7 52.4Q112.1 51.5 112.9 50.9Q113.8 50.3 115.0 50.3L115.0 50.3Q116.5 50.3 117.5 51.3Q118.4 52.3 118.4 54.0L118.4 54.0L118.4 61.4L115.4 61.4L115.4 54.6Q115.4 53.7 114.9 53.3Q114.5 52.8 113.7 52.8L113.7 52.8Q112.9 52.8 112.5 53.3Q112.0 53.9 112.0 54.7L112.0 54.7L112.0 61.4L109.1 61.4L109.1 54.6Q109.1 53.8 108.6 53.3Q108.1 52.8 107.4 52.8L107.4 52.8Q106.9 52.8 106.5 53.1Q106.1 53.3 105.9 53.8Q105.6 54.2 105.6 54.8L105.6 54.8L105.6 61.4ZM125.4 61.6L125.4 61.6Q123.8 61.6 122.6 60.9Q121.4 60.2 120.7 58.9Q120.1 57.6 120.1 56.0L120.1 56.0Q120.1 54.3 120.7 53.0Q121.4 51.7 122.6 51.0Q123.8 50.3 125.4 50.3L125.4 50.3Q127.1 50.3 128.3 51.0Q129.5 51.7 130.2 53.0Q130.8 54.3 130.8 56.0L130.8 56.0Q130.8 57.6 130.2 58.9Q129.5 60.2 128.3 60.9Q127.1 61.6 125.4 61.6ZM125.5 59.2L125.5 59.2Q126.2 59.2 126.7 58.8Q127.2 58.4 127.5 57.6Q127.7 56.9 127.7 55.9L127.7 55.9Q127.7 55.0 127.5 54.2Q127.2 53.5 126.7 53.1Q126.2 52.6 125.5 52.6L125.5 52.6Q124.7 52.6 124.2 53.1Q123.7 53.5 123.4 54.2Q123.2 55.0 123.2 55.9L123.2 55.9Q123.2 56.9 123.4 57.6Q123.7 58.4 124.2 58.8Q124.7 59.2 125.5 59.2ZM134.2 61.6L134.2 61.6Q133.5 61.6 133.0 61.1Q132.5 60.6 132.5 59.9L132.5 59.9Q132.5 59.2 133.0 58.7Q133.5 58.2 134.2 58.2L134.2 58.2Q134.9 58.2 135.4 58.7Q135.9 59.2 135.9 59.9L135.9 59.9Q135.9 60.3 135.7 60.7Q135.5 61.1 135.1 61.3Q134.7 61.6 134.2 61.6ZM141.1 61.4L138.1 61.4L138.1 50.5L141.0 50.5L141.0 52.4L141.1 52.4Q141.5 51.4 142.2 50.9Q143.0 50.3 144.2 50.3L144.2 50.3Q145.3 50.3 146.1 50.9Q146.9 51.4 147.1 52.4L147.1 52.4L147.2 52.4Q147.6 51.5 148.4 50.9Q149.3 50.3 150.5 50.3L150.5 50.3Q152.0 50.3 153.0 51.3Q154.0 52.3 154.0 54.0L154.0 54.0L154.0 61.4L150.9 61.4L150.9 54.6Q150.9 53.7 150.5 53.3Q150.0 52.8 149.2 52.8L149.2 52.8Q148.4 52.8 148.0 53.3Q147.5 53.9 147.5 54.7L147.5 54.7L147.5 61.4L144.6 61.4L144.6 54.6Q144.6 53.8 144.1 53.3Q143.6 52.8 142.9 52.8L142.9 52.8Q142.4 52.8 142.0 53.1Q141.6 53.3 141.4 53.8Q141.1 54.2 141.1 54.8L141.1 54.8L141.1 61.4ZM161.0 61.6L161.0 61.6Q159.3 61.6 158.1 60.9Q156.9 60.2 156.2 59.0Q155.6 57.7 155.6 56.0L155.6 56.0Q155.6 54.3 156.2 53.0Q156.9 51.7 158.1 51.0Q159.3 50.3 160.9 50.3L160.9 50.3Q161.9 50.3 162.9 50.7Q163.8 51.0 164.5 51.7Q165.2 52.4 165.6 53.4Q166.0 54.5 166.0 55.9L166.0 55.9L166.0 56.7L156.8 56.7L156.8 54.8L163.1 54.8Q163.1 54.2 162.9 53.7Q162.6 53.2 162.1 52.9Q161.6 52.6 160.9 52.6L160.9 52.6Q160.2 52.6 159.7 52.9Q159.2 53.2 158.9 53.7Q158.6 54.3 158.6 54.9L158.6 54.9L158.6 56.7Q158.6 57.5 158.9 58.1Q159.2 58.7 159.7 59.0Q160.3 59.3 161.0 59.3L161.0 59.3Q161.5 59.3 162.0 59.2Q162.4 59.0 162.7 58.8Q163.0 58.5 163.1 58.1L163.1 58.1L165.9 58.3Q165.7 59.3 165.1 60.0Q164.4 60.8 163.4 61.2Q162.3 61.6 161.0 61.6Z "/><mask id="satori_om-id-1"><rect x="125" y="124" width="550" height="152" fill="#fff"/></mask><rect x="125" y="124" width="550" height="152" fill="#ff4500"/><path fill="#f7f7f7" d="M232.3 186.5L212.6 186.5L212.6 157.5L232.2 157.5L232.2 162.5L218.8 162.5L218.8 169.5L231.2 169.5L231.2 174.5L218.8 174.5L218.8 181.5L232.3 181.5L232.3 186.5ZM235.5 164.7L241.8 164.7L245.8 172.4L249.9 164.7L256.1 164.7L249.8 175.6L256.2 186.5L250.1 186.5L245.8 179.0L241.5 186.5L235.3 186.5L241.8 175.6L235.5 164.7ZM265.5 187.0L265.5 187.0Q263.4 187.0 261.7 186.2Q260.1 185.5 259.2 184.1Q258.2 182.6 258.2 180.5L258.2 180.5Q258.2 178.6 258.9 177.4Q259.5 176.2 260.7 175.4Q261.8 174.7 263.3 174.3Q264.8 173.9 266.4 173.7L266.4 173.7Q268.3 173.5 269.5 173.4Q270.6 173.2 271.2 172.8Q271.7 172.5 271.7 171.8L271.7 171.8L271.7 171.7Q271.7 170.3 270.8 169.6Q270.0 168.9 268.5 168.9L268.5 168.9Q266.8 168.9 265.9 169.6Q264.9 170.3 264.6 171.4L264.6 171.4L259.0 170.9Q259.4 168.9 260.7 167.5Q261.9 166.0 263.9 165.2Q265.9 164.4 268.5 164.4L268.5 164.4Q270.3 164.4 272.0 164.9Q273.6 165.3 274.9 166.2Q276.2 167.1 277.0 168.5Q277.7 169.9 277.7 171.8L277.7 171.8L277.7 186.5L272.0 186.5L272.0 183.5L271.8 183.5Q271.3 184.5 270.4 185.3Q269.5 186.1 268.3 186.5Q267.1 187.0 265.5 187.0ZM267.2 182.8L267.2 182.8Q268.5 182.8 269.5 182.2Q270.6 181.7 271.1 180.8Q271.7 179.9 271.7 178.7L271.7 178.7L271.7 176.4Q271.4 176.6 271.0 176.8Q270.5 176.9 269.9 177.0Q269.2 177.2 268.6 177.2Q268.0 177.3 267.5 177.4L267.5 177.4Q266.5 177.6 265.7 177.9Q264.9 178.3 264.4 178.8Q264.0 179.4 264.0 180.3L264.0 180.3Q264.0 181.5 264.9 182.1Q265.8 182.8 267.2 182.8ZM288.2 186.5L282.1 186.5L282.1 164.7L287.9 164.7L287.9 168.6L288.1 168.6Q288.8 166.7 290.4 165.6Q292.0 164.4 294.2 164.4L294.2 164.4Q296.5 164.4 298.0 165.6Q299.6 166.7 300.1 168.6L300.1 168.6L300.4 168.6Q301.0 166.7 302.8 165.6Q304.6 164.4 307.0 164.4L307.0 164.4Q310.0 164.4 311.9 166.4Q313.8 168.3 313.8 171.9L313.8 171.9L313.8 186.5L307.8 186.5L307.8 173.1Q307.8 171.2 306.8 170.3Q305.9 169.4 304.4 169.4L304.4 169.4Q302.8 169.4 301.8 170.5Q300.9 171.5 300.9 173.2L300.9 173.2L300.9 186.5L295.0 186.5L295.0 172.9Q295.0 171.3 294.1 170.4Q293.2 169.4 291.7 169.4L291.7 169.4Q290.7 169.4 289.9 169.9Q289.1 170.4 288.6 171.3Q288.2 172.2 288.2 173.4L288.2 173.4L288.2 186.5ZM324.3 194.7L318.3 194.7L318.3 164.7L324.2 164.7L324.2 168.4L324.5 168.4Q324.9 167.5 325.7 166.6Q326.4 165.7 327.7 165.1Q328.9 164.4 330.7 164.4L330.7 164.4Q333.1 164.4 335.1 165.7Q337.1 166.9 338.4 169.4Q339.6 171.9 339.6 175.7L339.6 175.7Q339.6 179.3 338.4 181.8Q337.2 184.3 335.2 185.6Q333.2 186.9 330.7 186.9L330.7 186.9Q328.9 186.9 327.7 186.3Q326.5 185.7 325.7 184.8Q324.9 184.0 324.5 183.1L324.5 183.1L324.3 183.1L324.3 194.7ZM324.2 175.6L324.2 175.6Q324.2 177.6 324.7 179.0Q325.3 180.5 326.3 181.3Q327.3 182.1 328.8 182.1L328.8 182.1Q330.3 182.1 331.3 181.3Q332.3 180.5 332.8 179.0Q333.4 177.5 333.4 175.6L333.4 175.6Q333.4 173.7 332.9 172.3Q332.3 170.9 331.3 170.1Q330.3 169.3 328.8 169.3L328.8 169.3Q327.3 169.3 326.3 170.0Q325.3 170.8 324.7 172.3Q324.2 173.7 324.2 175.6ZM343.3 157.5L349.3 157.5L349.3 186.5L343.3 186.5L343.3 157.5ZM363.8 187.0L363.8 187.0Q360.4 187.0 358.0 185.6Q355.6 184.2 354.2 181.7Q352.9 179.2 352.9 175.7L352.9 175.7Q352.9 172.4 354.2 169.8Q355.6 167.3 357.9 165.9Q360.3 164.4 363.5 164.4L363.5 164.4Q365.7 164.4 367.5 165.1Q369.4 165.8 370.8 167.2Q372.2 168.6 373.0 170.7Q373.8 172.7 373.8 175.5L373.8 175.5L373.8 177.2L355.4 177.2L355.4 173.4L368.1 173.4Q368.1 172.1 367.5 171.1Q366.9 170.1 365.9 169.5Q364.9 169.0 363.6 169.0L363.6 169.0Q362.2 169.0 361.2 169.6Q360.1 170.2 359.5 171.3Q358.9 172.3 358.9 173.6L358.9 173.6L358.9 177.2Q358.9 178.8 359.5 180.0Q360.1 181.2 361.2 181.8Q362.3 182.5 363.9 182.5L363.9 182.5Q364.9 182.5 365.7 182.2Q366.5 181.9 367.1 181.3Q367.7 180.8 368.1 179.9L368.1 179.9L373.6 180.3Q373.2 182.3 371.9 183.8Q370.6 185.3 368.5 186.1Q366.5 187.0 363.8 187.0ZM395.6 170.9L395.6 170.9L390.0 171.3Q389.9 170.6 389.4 170.0Q388.9 169.4 388.2 169.1Q387.4 168.7 386.4 168.7L386.4 168.7Q385.0 168.7 384.0 169.3Q383.0 169.9 383.0 170.9L383.0 170.9Q383.0 171.7 383.7 172.2Q384.3 172.8 385.8 173.1L385.8 173.1L389.7 173.9Q392.9 174.5 394.5 176.0Q396.1 177.4 396.1 179.8L396.1 179.8Q396.1 181.9 394.8 183.5Q393.5 185.2 391.4 186.1Q389.2 187.0 386.3 187.0L386.3 187.0Q382.0 187.0 379.4 185.2Q376.9 183.3 376.4 180.2L376.4 180.2L382.4 179.9Q382.7 181.2 383.7 181.9Q384.7 182.6 386.4 182.6L386.4 182.6Q387.9 182.6 388.9 182.0Q389.9 181.4 389.9 180.4L389.9 180.4Q389.9 179.6 389.2 179.0Q388.5 178.5 387.1 178.2L387.1 178.2L383.3 177.5Q380.1 176.8 378.6 175.3Q377.0 173.7 377.0 171.2L377.0 171.2Q377.0 169.1 378.2 167.6Q379.3 166.1 381.4 165.3Q383.5 164.4 386.3 164.4L386.3 164.4Q390.4 164.4 392.8 166.2Q395.2 167.9 395.6 170.9ZM403.1 186.9L403.1 186.9Q401.7 186.9 400.7 185.9Q399.7 184.9 399.7 183.5L399.7 183.5Q399.7 182.1 400.7 181.1Q401.7 180.1 403.1 180.1L403.1 180.1Q404.5 180.1 405.5 181.1Q406.5 182.1 406.5 183.5L406.5 183.5Q406.5 184.4 406.0 185.2Q405.6 186.0 404.8 186.5Q404.0 186.9 403.1 186.9Z M426.5 186.5L420.3 186.5L420.3 157.5L431.8 157.5Q435.1 157.5 437.4 158.7Q439.8 160.0 441.0 162.2Q442.2 164.4 442.2 167.3L442.2 167.3Q442.2 170.2 441.0 172.4Q439.7 174.6 437.3 175.9Q435.0 177.1 431.6 177.1L431.6 177.1L424.3 177.1L424.3 172.2L430.6 172.2Q432.4 172.2 433.6 171.6Q434.7 170.9 435.3 169.8Q435.9 168.7 435.9 167.3L435.9 167.3Q435.9 165.9 435.3 164.8Q434.7 163.7 433.6 163.1Q432.4 162.5 430.6 162.5L430.6 162.5L426.5 162.5L426.5 186.5ZM451.8 186.5L445.8 186.5L445.8 164.7L451.7 164.7L451.7 168.5L451.9 168.5Q452.5 166.5 453.9 165.5Q455.3 164.4 457.1 164.4L457.1 164.4Q457.6 164.4 458.1 164.5Q458.6 164.5 459.0 164.6L459.0 164.6L459.0 170.0Q458.6 169.9 457.8 169.8Q457.1 169.7 456.5 169.7L456.5 169.7Q455.1 169.7 454.1 170.2Q453.0 170.8 452.4 171.8Q451.8 172.9 451.8 174.2L451.8 174.2L451.8 186.5ZM470.6 187.0L470.6 187.0Q467.3 187.0 464.9 185.6Q462.5 184.1 461.2 181.6Q459.9 179.1 459.9 175.7L459.9 175.7Q459.9 172.3 461.2 169.8Q462.5 167.3 464.9 165.9Q467.3 164.4 470.6 164.4L470.6 164.4Q474.0 164.4 476.4 165.9Q478.8 167.3 480.1 169.8Q481.4 172.3 481.4 175.7L481.4 175.7Q481.4 179.1 480.1 181.6Q478.8 184.1 476.4 185.6Q474.0 187.0 470.6 187.0ZM470.7 182.3L470.7 182.3Q472.2 182.3 473.2 181.4Q474.2 180.6 474.7 179.1Q475.2 177.6 475.2 175.7L475.2 175.7Q475.2 173.8 474.7 172.3Q474.2 170.8 473.2 169.9Q472.2 169.1 470.7 169.1L470.7 169.1Q469.2 169.1 468.1 169.9Q467.1 170.8 466.6 172.3Q466.1 173.8 466.1 175.7L466.1 175.7Q466.1 177.6 466.6 179.1Q467.1 180.6 468.1 181.4Q469.2 182.3 470.7 182.3ZM485.0 187.5L485.0 164.7L491.1 164.7L491.1 187.6Q491.1 190.2 490.1 191.7Q489.1 193.3 487.2 194.0Q485.4 194.7 482.8 194.7L482.8 194.7Q482.5 194.7 482.2 194.7Q481.9 194.7 481.6 194.7L481.6 194.7L481.6 190.0Q481.8 190.0 482.0 190.0Q482.2 190.0 482.4 190.0L482.4 190.0Q483.8 190.0 484.4 189.4Q485.0 188.8 485.0 187.5L485.0 187.5ZM488.0 161.9L488.0 161.9Q486.7 161.9 485.7 161.0Q484.8 160.1 484.8 158.8L484.8 158.8Q484.8 157.6 485.7 156.7Q486.7 155.8 488.0 155.8L488.0 155.8Q489.4 155.8 490.4 156.7Q491.3 157.6 491.3 158.8L491.3 158.8Q491.3 160.1 490.4 161.0Q489.4 161.9 488.0 161.9ZM505.5 187.0L505.5 187.0Q502.2 187.0 499.7 185.6Q497.3 184.2 496.0 181.7Q494.7 179.2 494.7 175.7L494.7 175.7Q494.7 172.4 496.0 169.8Q497.3 167.3 499.7 165.9Q502.1 164.4 505.3 164.4L505.3 164.4Q507.4 164.4 509.3 165.1Q511.2 165.8 512.6 167.2Q514.0 168.6 514.8 170.7Q515.5 172.7 515.5 175.5L515.5 175.5L515.5 177.2L497.1 177.2L497.1 173.4L509.8 173.4Q509.8 172.1 509.3 171.1Q508.7 170.1 507.7 169.5Q506.7 169.0 505.4 169.0L505.4 169.0Q504.0 169.0 502.9 169.6Q501.9 170.2 501.3 171.3Q500.7 172.3 500.7 173.6L500.7 173.6L500.7 177.2Q500.7 178.8 501.3 180.0Q501.9 181.2 503.0 181.8Q504.1 182.5 505.6 182.5L505.6 182.5Q506.6 182.5 507.5 182.2Q508.3 181.9 508.9 181.3Q509.5 180.8 509.8 179.9L509.8 179.9L515.4 180.3Q515.0 182.3 513.7 183.8Q512.4 185.3 510.3 186.1Q508.2 187.0 505.5 187.0ZM529.0 187.0L529.0 187.0Q525.7 187.0 523.3 185.5Q520.9 184.1 519.6 181.6Q518.3 179.0 518.3 175.7L518.3 175.7Q518.3 172.4 519.6 169.8Q520.9 167.3 523.3 165.9Q525.7 164.4 529.0 164.4L529.0 164.4Q531.8 164.4 534.0 165.5Q536.1 166.5 537.4 168.4Q538.6 170.3 538.8 172.8L538.8 172.8L533.1 172.8Q532.8 171.2 531.8 170.2Q530.8 169.2 529.1 169.2L529.1 169.2Q527.7 169.2 526.6 169.9Q525.6 170.7 525.0 172.1Q524.4 173.6 524.4 175.6L524.4 175.6Q524.4 177.7 525.0 179.2Q525.6 180.7 526.6 181.4Q527.7 182.2 529.1 182.2L529.1 182.2Q530.1 182.2 531.0 181.8Q531.8 181.3 532.3 180.5Q532.9 179.7 533.1 178.5L533.1 178.5L538.8 178.5Q538.6 181.0 537.4 182.9Q536.2 184.8 534.1 185.9Q531.9 187.0 529.0 187.0ZM540.8 164.7L553.9 164.7L553.9 169.3L540.8 169.3L540.8 164.7ZM543.8 180.6L543.8 159.5L549.8 159.5L549.8 179.8Q549.8 180.7 550.1 181.1Q550.3 181.6 550.8 181.8Q551.3 182.0 551.9 182.0L551.9 182.0Q552.3 182.0 552.7 181.9Q553.2 181.8 553.4 181.8L553.4 181.8L554.3 186.3Q553.9 186.4 553.1 186.6Q552.2 186.8 551.1 186.8L551.1 186.8Q548.9 186.9 547.2 186.3Q545.6 185.6 544.7 184.2Q543.8 182.8 543.8 180.6L543.8 180.6ZM575.4 170.9L575.4 170.9L569.9 171.3Q569.7 170.6 569.3 170.0Q568.8 169.4 568.0 169.1Q567.3 168.7 566.2 168.7L566.2 168.7Q564.8 168.7 563.8 169.3Q562.9 169.9 562.9 170.9L562.9 170.9Q562.9 171.7 563.5 172.2Q564.1 172.8 565.7 173.1L565.7 173.1L569.6 173.9Q572.8 174.5 574.3 176.0Q575.9 177.4 575.9 179.8L575.9 179.8Q575.9 181.9 574.7 183.5Q573.4 185.2 571.2 186.1Q569.0 187.0 566.2 187.0L566.2 187.0Q561.9 187.0 559.3 185.2Q556.7 183.3 556.3 180.2L556.3 180.2L562.2 179.9Q562.5 181.2 563.6 181.9Q564.6 182.6 566.2 182.6L566.2 182.6Q567.8 182.6 568.8 182.0Q569.7 181.4 569.8 180.4L569.8 180.4Q569.7 179.6 569.1 179.0Q568.4 178.5 567.0 178.2L567.0 178.2L563.2 177.5Q560.0 176.8 558.4 175.3Q556.9 173.7 556.9 171.2L556.9 171.2Q556.9 169.1 558.0 167.6Q559.2 166.1 561.2 165.3Q563.3 164.4 566.1 164.4L566.1 164.4Q570.3 164.4 572.6 166.2Q575.0 167.9 575.4 170.9ZM582.9 186.9L582.9 186.9Q581.5 186.9 580.5 185.9Q579.5 184.9 579.5 183.5L579.5 183.5Q579.5 182.1 580.5 181.1Q581.5 180.1 582.9 180.1L582.9 180.1Q584.3 180.1 585.3 181.1Q586.4 182.1 586.4 183.5L586.4 183.5Q586.4 184.4 585.9 185.2Q585.4 186.0 584.6 186.5Q583.9 186.9 582.9 186.9Z M279.9 213.5L286.1 213.5L286.1 242.5L279.9 242.5L279.9 213.5ZM298.7 242.9L298.7 242.9Q296.2 242.9 294.2 241.6Q292.2 240.3 291.1 237.8Q289.9 235.3 289.9 231.7L289.9 231.7Q289.9 227.9 291.1 225.4Q292.3 222.9 294.3 221.7Q296.3 220.4 298.7 220.4L298.7 220.4Q300.5 220.4 301.8 221.1Q303.0 221.7 303.8 222.6Q304.5 223.5 304.9 224.4L304.9 224.4L305.1 224.4L305.1 213.5L311.1 213.5L311.1 242.5L305.2 242.5L305.2 239.1L304.9 239.1Q304.5 240.0 303.7 240.8Q302.9 241.7 301.7 242.3Q300.5 242.9 298.7 242.9ZM300.6 238.1L300.6 238.1Q302.1 238.1 303.1 237.3Q304.1 236.5 304.7 235.0Q305.2 233.6 305.2 231.6L305.2 231.6Q305.2 229.7 304.7 228.3Q304.2 226.8 303.1 226.0Q302.1 225.3 300.6 225.3L300.6 225.3Q299.2 225.3 298.1 226.1Q297.1 226.9 296.6 228.3Q296.1 229.7 296.1 231.6L296.1 231.6Q296.1 233.5 296.6 235.0Q297.1 236.5 298.1 237.3Q299.2 238.1 300.6 238.1ZM325.7 243.0L325.7 243.0Q322.4 243.0 319.9 241.6Q317.5 240.2 316.2 237.7Q314.9 235.2 314.9 231.7L314.9 231.7Q314.9 228.4 316.2 225.8Q317.5 223.3 319.9 221.9Q322.3 220.4 325.5 220.4L325.5 220.4Q327.6 220.4 329.5 221.1Q331.4 221.8 332.8 223.2Q334.2 224.6 335.0 226.7Q335.7 228.7 335.7 231.5L335.7 231.5L335.7 233.2L317.3 233.2L317.3 229.4L330.0 229.4Q330.0 228.1 329.5 227.1Q328.9 226.1 327.9 225.5Q326.9 225.0 325.6 225.0L325.6 225.0Q324.2 225.0 323.1 225.6Q322.1 226.2 321.5 227.3Q320.9 228.3 320.9 229.6L320.9 229.6L320.9 233.2Q320.9 234.8 321.5 236.0Q322.1 237.2 323.2 237.8Q324.3 238.5 325.8 238.5L325.8 238.5Q326.8 238.5 327.7 238.2Q328.5 237.9 329.1 237.3Q329.7 236.8 330.0 235.9L330.0 235.9L335.6 236.3Q335.2 238.3 333.9 239.8Q332.6 241.3 330.5 242.1Q328.4 243.0 325.7 243.0ZM345.6 243.0L345.6 243.0Q343.5 243.0 341.9 242.2Q340.2 241.5 339.3 240.1Q338.3 238.6 338.3 236.5L338.3 236.5Q338.3 234.6 339.0 233.4Q339.7 232.2 340.8 231.4Q342.0 230.7 343.5 230.3Q344.9 229.9 346.5 229.7L346.5 229.7Q348.4 229.5 349.6 229.4Q350.8 229.2 351.3 228.8Q351.8 228.5 351.8 227.8L351.8 227.8L351.8 227.7Q351.8 226.3 351.0 225.6Q350.1 224.9 348.6 224.9L348.6 224.9Q347.0 224.9 346.0 225.6Q345.0 226.3 344.7 227.4L344.7 227.4L339.1 226.9Q339.5 224.9 340.8 223.5Q342.0 222.0 344.0 221.2Q346.0 220.4 348.6 220.4L348.6 220.4Q350.4 220.4 352.1 220.9Q353.8 221.3 355.1 222.2Q356.4 223.1 357.1 224.5Q357.9 225.9 357.9 227.8L357.9 227.8L357.9 242.5L352.1 242.5L352.1 239.5L352.0 239.5Q351.4 240.5 350.6 241.3Q349.7 242.1 348.4 242.5Q347.2 243.0 345.6 243.0ZM347.3 238.8L347.3 238.8Q348.7 238.8 349.7 238.2Q350.7 237.7 351.3 236.8Q351.9 235.9 351.9 234.7L351.9 234.7L351.9 232.4Q351.6 232.6 351.1 232.8Q350.6 232.9 350.0 233.0Q349.4 233.2 348.8 233.2Q348.2 233.3 347.7 233.4L347.7 233.4Q346.6 233.6 345.8 233.9Q345.0 234.3 344.6 234.8Q344.1 235.4 344.1 236.3L344.1 236.3Q344.1 237.5 345.0 238.1Q345.9 238.8 347.3 238.8ZM380.4 226.9L380.4 226.9L374.9 227.3Q374.7 226.6 374.3 226.0Q373.8 225.4 373.0 225.1Q372.3 224.7 371.2 224.7L371.2 224.7Q369.8 224.7 368.9 225.3Q367.9 225.9 367.9 226.9L367.9 226.9Q367.9 227.7 368.5 228.2Q369.1 228.8 370.7 229.1L370.7 229.1L374.6 229.9Q377.8 230.5 379.3 232.0Q380.9 233.4 380.9 235.8L380.9 235.8Q380.9 237.9 379.7 239.5Q378.4 241.2 376.2 242.1Q374.0 243.0 371.2 243.0L371.2 243.0Q366.9 243.0 364.3 241.2Q361.7 239.3 361.3 236.2L361.3 236.2L367.2 235.9Q367.5 237.2 368.6 237.9Q369.6 238.6 371.2 238.6L371.2 238.6Q372.8 238.6 373.8 238.0Q374.7 237.4 374.8 236.4L374.8 236.4Q374.7 235.6 374.1 235.0Q373.4 234.5 372.0 234.2L372.0 234.2L368.2 233.5Q365.0 232.8 363.4 231.3Q361.9 229.7 361.9 227.2L361.9 227.2Q361.9 225.1 363.0 223.6Q364.2 222.1 366.2 221.3Q368.3 220.4 371.1 220.4L371.1 220.4Q375.3 220.4 377.6 222.2Q380.0 223.9 380.4 226.9ZM387.9 242.9L387.9 242.9Q386.5 242.9 385.5 241.9Q384.5 240.9 384.5 239.5L384.5 239.5Q384.5 238.1 385.5 237.1Q386.5 236.1 387.9 236.1L387.9 236.1Q389.3 236.1 390.3 237.1Q391.4 238.1 391.4 239.5L391.4 239.5Q391.4 240.4 390.9 241.2Q390.4 242.0 389.6 242.5Q388.9 242.9 387.9 242.9Z M423.3 213.5L429.4 213.5L429.4 242.5L424.1 242.5L411.4 224.2L411.2 224.2L411.2 242.5L405.1 242.5L405.1 213.5L410.5 213.5L423.0 231.8L423.3 231.8L423.3 213.5ZM444.0 243.0L444.0 243.0Q440.6 243.0 438.2 241.6Q435.8 240.2 434.5 237.7Q433.2 235.2 433.2 231.7L433.2 231.7Q433.2 228.4 434.5 225.8Q435.8 223.3 438.1 221.9Q440.5 220.4 443.7 220.4L443.7 220.4Q445.9 220.4 447.8 221.1Q449.6 221.8 451.0 223.2Q452.4 224.6 453.2 226.7Q454.0 228.7 454.0 231.5L454.0 231.5L454.0 233.2L435.6 233.2L435.6 229.4L448.3 229.4Q448.3 228.1 447.7 227.1Q447.2 226.1 446.2 225.5Q445.2 225.0 443.8 225.0L443.8 225.0Q442.5 225.0 441.4 225.6Q440.3 226.2 439.7 227.3Q439.1 228.3 439.1 229.6L439.1 229.6L439.1 233.2Q439.1 234.8 439.7 236.0Q440.3 237.2 441.4 237.8Q442.6 238.5 444.1 238.5L444.1 238.5Q445.1 238.5 445.9 238.2Q446.8 237.9 447.4 237.3Q448.0 236.8 448.3 235.9L448.3 235.9L453.9 236.3Q453.4 238.3 452.1 239.8Q450.8 241.3 448.7 242.1Q446.7 243.0 444.0 243.0ZM468.1 242.5L461.8 242.5L455.8 220.7L461.9 220.7L465.3 235.4L465.5 235.4L469.0 220.7L475.0 220.7L478.6 235.3L478.8 235.3L482.1 220.7L488.2 220.7L482.3 242.5L475.9 242.5L472.2 228.8L471.9 228.8L468.1 242.5ZM509.3 226.9L509.3 226.9L503.7 227.3Q503.6 226.6 503.1 226.0Q502.7 225.4 501.9 225.1Q501.1 224.7 500.1 224.7L500.1 224.7Q498.7 224.7 497.7 225.3Q496.8 225.9 496.8 226.9L496.8 226.9Q496.8 227.7 497.4 228.2Q498.0 228.8 499.5 229.1L499.5 229.1L503.5 229.9Q506.7 230.5 508.2 232.0Q509.8 233.4 509.8 235.8L509.8 235.8Q509.8 237.9 508.5 239.5Q507.3 241.2 505.1 242.1Q502.9 243.0 500.1 243.0L500.1 243.0Q495.7 243.0 493.2 241.2Q490.6 239.3 490.2 236.2L490.2 236.2L496.1 235.9Q496.4 237.2 497.4 237.9Q498.5 238.6 500.1 238.6L500.1 238.6Q501.7 238.6 502.6 238.0Q503.6 237.4 503.6 236.4L503.6 236.4Q503.6 235.6 502.9 235.0Q502.3 234.5 500.8 234.2L500.8 234.2L497.1 233.5Q493.9 232.8 492.3 231.3Q490.8 229.7 490.8 227.2L490.8 227.2Q490.8 225.1 491.9 223.6Q493.0 222.1 495.1 221.3Q497.2 220.4 500.0 220.4L500.0 220.4Q504.1 220.4 506.5 222.2Q508.9 223.9 509.3 226.9ZM516.8 242.9L516.8 242.9Q515.4 242.9 514.4 241.9Q513.4 240.9 513.4 239.5L513.4 239.5Q513.4 238.1 514.4 237.1Q515.4 236.1 516.8 236.1L516.8 236.1Q518.2 236.1 519.2 237.1Q520.2 238.1 520.2 239.5L520.2 239.5Q520.2 240.4 519.8 241.2Q519.3 242.0 518.5 242.5Q517.7 242.9 516.8 242.9Z "/></svg>